<?xml version="1.0" encoding="UTF-8" standalone="no"?>
<!DOCTYPE svg PUBLIC "-//W3C//DTD SVG 1.1//EN"
 "http://www.w3.org/Graphics/SVG/1.1/DTD/svg11.dtd">
<!-- Generated by graphviz version 2.43.0 (0)
 -->
<!-- Pages: 1 -->
<svg width="686pt" height="239pt"
 viewBox="0.00 0.00 685.50 238.80" xmlns="http://www.w3.org/2000/svg" xmlns:xlink="http://www.w3.org/1999/xlink">
<g id="graph0" class="graph" transform="scale(1.0 1.0) rotate(0) translate(4 234.8)">
<polygon fill="white" stroke="transparent" points="-4,4 -4,-234.8 681.5,-234.8 681.5,4 -4,4"/>
<text text-anchor="start" x="317.25" y="-200.6" font-family="Lato" font-size="14.00">[Büchi]</text>
<!-- I -->
<!-- 0 -->
<g id="node2" class="node">
<title>0</title>
<ellipse fill="#ffffaa" stroke="black" cx="56" cy="-23" rx="18" ry="18"/>
<text text-anchor="middle" x="56" y="-19.3" font-family="Lato" font-size="14.00">0</text>
</g>
<!-- I&#45;&gt;0 -->
<g id="edge1" class="edge">
<title>I&#45;&gt;0</title>
<path fill="none" stroke="black" d="M1.15,-23C2.79,-23 17.15,-23 30.63,-23"/>
<polygon fill="black" stroke="black" points="37.94,-23 30.94,-26.15 34.44,-23 30.94,-23 30.94,-23 30.94,-23 34.44,-23 30.94,-19.85 37.94,-23 37.94,-23"/>
</g>
<!-- 1 -->
<g id="node3" class="node">
<title>1</title>
<ellipse fill="#ffffaa" stroke="black" cx="173" cy="-53" rx="18" ry="18"/>
<text text-anchor="middle" x="173" y="-49.3" font-family="Lato" font-size="14.00">1</text>
</g>
<!-- 0&#45;&gt;1 -->
<g id="edge2" class="edge">
<title>0&#45;&gt;1</title>
<path fill="none" stroke="black" d="M73.97,-27.43C93.7,-32.57 126.39,-41.1 148.54,-46.88"/>
<polygon fill="black" stroke="black" points="155.34,-48.65 147.77,-49.93 151.95,-47.77 148.56,-46.89 148.56,-46.89 148.56,-46.89 151.95,-47.77 149.36,-43.84 155.34,-48.65 155.34,-48.65"/>
<text text-anchor="start" x="92" y="-47.8" font-family="Lato" font-size="14.00">__ap41</text>
</g>
<!-- 2 -->
<g id="node4" class="node">
<title>2</title>
<ellipse fill="#ffffaa" stroke="black" cx="653" cy="-22" rx="18" ry="18"/>
<ellipse fill="none" stroke="black" cx="653" cy="-22" rx="22" ry="22"/>
<text text-anchor="middle" x="653" y="-18.3" font-family="Lato" font-size="14.00">2</text>
</g>
<!-- 0&#45;&gt;2 -->
<g id="edge3" class="edge">
<title>0&#45;&gt;2</title>
<path fill="none" stroke="black" d="M73.66,-19.21C95.94,-14.48 136.72,-7 172,-7 172,-7 172,-7 529,-7 561.89,-7 599.37,-12.35 624.23,-16.66"/>
<polygon fill="black" stroke="black" points="631.2,-17.9 623.76,-19.78 627.76,-17.29 624.31,-16.68 624.31,-16.68 624.31,-16.68 627.76,-17.29 624.86,-13.57 631.2,-17.9 631.2,-17.9"/>
<text text-anchor="start" x="328" y="-10.8" font-family="Lato" font-size="14.00">__ap41</text>
</g>
<!-- 1&#45;&gt;1 -->
<g id="edge4" class="edge">
<title>1&#45;&gt;1</title>
<path fill="none" stroke="black" d="M163.19,-68.17C160.21,-78.66 163.48,-89 173,-89 180.29,-89 183.91,-82.94 183.87,-75.39"/>
<polygon fill="black" stroke="black" points="182.81,-68.17 186.95,-74.63 183.32,-71.63 183.83,-75.09 183.83,-75.09 183.83,-75.09 183.32,-71.63 180.71,-75.55 182.81,-68.17 182.81,-68.17"/>
<text text-anchor="start" x="148.5" y="-92.8" font-family="Lato" font-size="14.00">!__ap41</text>
</g>
<!-- 3 -->
<g id="node5" class="node">
<title>3</title>
<ellipse fill="#ffffaa" stroke="black" cx="290" cy="-68" rx="18" ry="18"/>
<text text-anchor="middle" x="290" y="-64.3" font-family="Lato" font-size="14.00">3</text>
</g>
<!-- 1&#45;&gt;3 -->
<g id="edge5" class="edge">
<title>1&#45;&gt;3</title>
<path fill="none" stroke="black" d="M190.97,-55.21C210.5,-57.76 242.74,-61.97 264.87,-64.85"/>
<polygon fill="black" stroke="black" points="271.96,-65.78 264.61,-68 268.49,-65.32 265.02,-64.87 265.02,-64.87 265.02,-64.87 268.49,-65.32 265.43,-61.75 271.96,-65.78 271.96,-65.78"/>
<text text-anchor="start" x="209" y="-66.8" font-family="Lato" font-size="14.00">__ap41</text>
</g>
<!-- 2&#45;&gt;2 -->
<g id="edge6" class="edge">
<title>2&#45;&gt;2</title>
<path fill="none" stroke="black" d="M641.66,-40.93C639.34,-51.84 643.12,-62 653,-62 660.56,-62 664.55,-56.05 664.96,-48.36"/>
<polygon fill="black" stroke="black" points="664.34,-40.93 668.06,-47.64 664.63,-44.42 664.93,-47.91 664.93,-47.91 664.93,-47.91 664.63,-44.42 661.79,-48.17 664.34,-40.93 664.34,-40.93"/>
<text text-anchor="start" x="628.5" y="-65.8" font-family="Lato" font-size="14.00">!__ap41</text>
</g>
<!-- 4 -->
<g id="node6" class="node">
<title>4</title>
<ellipse fill="#ffffaa" stroke="black" cx="411" cy="-53" rx="18" ry="18"/>
<text text-anchor="middle" x="411" y="-49.3" font-family="Lato" font-size="14.00">4</text>
</g>
<!-- 3&#45;&gt;4 -->
<g id="edge7" class="edge">
<title>3&#45;&gt;4</title>
<path fill="none" stroke="black" d="M308.21,-68.85C325.31,-69.36 352.19,-69.22 375,-65 378.95,-64.27 383.05,-63.18 387.01,-61.95"/>
<polygon fill="black" stroke="black" points="393.89,-59.64 388.26,-64.85 390.57,-60.75 387.25,-61.87 387.25,-61.87 387.25,-61.87 390.57,-60.75 386.25,-58.88 393.89,-59.64 393.89,-59.64"/>
<text text-anchor="start" x="326" y="-72.8" font-family="Lato" font-size="14.00">!__ap41</text>
</g>
<!-- 5 -->
<g id="node7" class="node">
<title>5</title>
<ellipse fill="#ffffaa" stroke="black" cx="411" cy="-140" rx="18" ry="18"/>
<text text-anchor="middle" x="411" y="-136.3" font-family="Lato" font-size="14.00">5</text>
</g>
<!-- 3&#45;&gt;5 -->
<g id="edge8" class="edge">
<title>3&#45;&gt;5</title>
<path fill="none" stroke="black" d="M306.07,-77.12C327.08,-89.83 365.27,-112.94 389.05,-127.32"/>
<polygon fill="black" stroke="black" points="395.05,-130.96 387.43,-130.03 392.06,-129.14 389.06,-127.33 389.06,-127.33 389.06,-127.33 392.06,-129.14 390.69,-124.64 395.05,-130.96 395.05,-130.96"/>
<text text-anchor="start" x="328" y="-121.8" font-family="Lato" font-size="14.00">__ap41</text>
</g>
<!-- 4&#45;&gt;3 -->
<g id="edge9" class="edge">
<title>4&#45;&gt;3</title>
<path fill="none" stroke="black" d="M393.55,-48.21C376.37,-43.98 348.78,-39.44 326,-46 320.57,-47.57 315.17,-50.25 310.29,-53.22"/>
<polygon fill="black" stroke="black" points="304.43,-57.06 308.56,-50.59 307.36,-55.14 310.28,-53.22 310.28,-53.22 310.28,-53.22 307.36,-55.14 312.01,-55.85 304.43,-57.06 304.43,-57.06"/>
<text text-anchor="start" x="326" y="-49.8" font-family="Lato" font-size="14.00">!__ap41</text>
</g>
<!-- 4&#45;&gt;4 -->
<g id="edge10" class="edge">
<title>4&#45;&gt;4</title>
<path fill="none" stroke="black" d="M401.19,-68.17C398.21,-78.66 401.48,-89 411,-89 418.29,-89 421.91,-82.94 421.87,-75.39"/>
<polygon fill="black" stroke="black" points="420.81,-68.17 424.95,-74.63 421.32,-71.63 421.83,-75.09 421.83,-75.09 421.83,-75.09 421.32,-71.63 418.71,-75.55 420.81,-68.17 420.81,-68.17"/>
<text text-anchor="start" x="388.5" y="-92.8" font-family="Lato" font-size="14.00">__ap41</text>
</g>
<!-- 5&#45;&gt;5 -->
<g id="edge11" class="edge">
<title>5&#45;&gt;5</title>
<path fill="none" stroke="black" d="M401.19,-155.17C398.21,-165.66 401.48,-176 411,-176 418.29,-176 421.91,-169.94 421.87,-162.39"/>
<polygon fill="black" stroke="black" points="420.81,-155.17 424.95,-161.63 421.32,-158.63 421.83,-162.09 421.83,-162.09 421.83,-162.09 421.32,-158.63 418.71,-162.55 420.81,-155.17 420.81,-155.17"/>
<text text-anchor="start" x="386.5" y="-179.8" font-family="Lato" font-size="14.00">!__ap41</text>
</g>
<!-- 6 -->
<g id="node8" class="node">
<title>6</title>
<ellipse fill="#ffffaa" stroke="black" cx="528" cy="-102" rx="18" ry="18"/>
<text text-anchor="middle" x="528" y="-98.3" font-family="Lato" font-size="14.00">6</text>
</g>
<!-- 5&#45;&gt;6 -->
<g id="edge12" class="edge">
<title>5&#45;&gt;6</title>
<path fill="none" stroke="black" d="M421.44,-125.29C427.61,-117.08 436.47,-107.61 447,-103 464.65,-95.27 486.67,-95.62 503.14,-97.57"/>
<polygon fill="black" stroke="black" points="510.28,-98.55 502.91,-100.72 506.81,-98.08 503.34,-97.6 503.34,-97.6 503.34,-97.6 506.81,-98.08 503.77,-94.48 510.28,-98.55 510.28,-98.55"/>
<text text-anchor="start" x="447" y="-106.8" font-family="Lato" font-size="14.00">__ap41</text>
</g>
<!-- 6&#45;&gt;2 -->
<g id="edge13" class="edge">
<title>6&#45;&gt;2</title>
<path fill="none" stroke="black" d="M542.36,-91.11C548.78,-86.04 556.65,-80.02 564,-75 584.72,-60.84 609.25,-46.23 627.14,-35.95"/>
<polygon fill="black" stroke="black" points="633.41,-32.36 628.9,-38.57 630.37,-34.1 627.34,-35.84 627.34,-35.84 627.34,-35.84 630.37,-34.1 625.77,-33.1 633.41,-32.36 633.41,-32.36"/>
<text text-anchor="start" x="566" y="-78.8" font-family="Lato" font-size="14.00">__ap41</text>
</g>
<!-- 6&#45;&gt;5 -->
<g id="edge14" class="edge">
<title>6&#45;&gt;5</title>
<path fill="none" stroke="black" d="M511.54,-109.71C505.53,-112.54 498.53,-115.63 492,-118 473.45,-124.74 451.84,-130.57 435.76,-134.53"/>
<polygon fill="black" stroke="black" points="428.79,-136.21 434.85,-131.51 432.19,-135.39 435.59,-134.57 435.59,-134.57 435.59,-134.57 432.19,-135.39 436.34,-137.63 428.79,-136.21 428.79,-136.21"/>
<text text-anchor="start" x="447" y="-134.8" font-family="Lato" font-size="14.00">__ap41</text>
</g>
<!-- 7 -->
<g id="node9" class="node">
<title>7</title>
<ellipse fill="#ffffaa" stroke="black" cx="653" cy="-115" rx="18" ry="18"/>
<text text-anchor="middle" x="653" y="-111.3" font-family="Lato" font-size="14.00">7</text>
</g>
<!-- 6&#45;&gt;7 -->
<g id="edge15" class="edge">
<title>6&#45;&gt;7</title>
<path fill="none" stroke="black" d="M545.95,-98.3C563.06,-95.19 590.17,-91.99 613,-97 618.84,-98.28 624.84,-100.53 630.34,-103"/>
<polygon fill="black" stroke="black" points="636.98,-106.21 629.3,-106 633.83,-104.69 630.68,-103.17 630.68,-103.17 630.68,-103.17 633.83,-104.69 632.05,-100.33 636.98,-106.21 636.98,-106.21"/>
<text text-anchor="start" x="564" y="-100.8" font-family="Lato" font-size="14.00">!__ap41</text>
</g>
<!-- 7&#45;&gt;6 -->
<g id="edge16" class="edge">
<title>7&#45;&gt;6</title>
<path fill="none" stroke="black" d="M634.68,-115.65C616.85,-116.03 588.31,-115.83 564,-112 560.1,-111.39 556.02,-110.48 552.07,-109.45"/>
<polygon fill="black" stroke="black" points="545.2,-107.52 552.79,-106.38 548.57,-108.47 551.94,-109.41 551.94,-109.41 551.94,-109.41 548.57,-108.47 551.08,-112.44 545.2,-107.52 545.2,-107.52"/>
<text text-anchor="start" x="564" y="-118.8" font-family="Lato" font-size="14.00">!__ap41</text>
</g>
<!-- 7&#45;&gt;7 -->
<g id="edge17" class="edge">
<title>7&#45;&gt;7</title>
<path fill="none" stroke="black" d="M642.29,-129.79C638.81,-140.42 642.38,-151 653,-151 661.13,-151 665.13,-144.8 665,-137.12"/>
<polygon fill="black" stroke="black" points="663.71,-129.79 668.02,-136.14 664.31,-133.24 664.92,-136.69 664.92,-136.69 664.92,-136.69 664.31,-133.24 661.82,-137.23 663.71,-129.79 663.71,-129.79"/>
<text text-anchor="start" x="630.5" y="-154.8" font-family="Lato" font-size="14.00">__ap41</text>
</g>
</g>
</svg>
